<svg xmlns="http://www.w3.org/2000/svg" xmlns:xlink="http://www.w3.org/1999/xlink" viewBox="0,0,256,256" width="30px" height="30px"><g fill="#ededed" fill-rule="nonzero" stroke="none" stroke-width="1" stroke-linecap="butt" stroke-linejoin="miter" stroke-miterlimit="10" stroke-dasharray="" stroke-dashoffset="0" font-family="none" font-weight="none" font-size="none" text-anchor="none" style="mix-blend-mode: normal"><g transform="scale(4,4)"><path d="M52.42,11.407c-5.471,-5.425 -12.716,-8.407 -20.415,-8.407c-0.042,0 -0.085,0 -0.127,0c-7.746,0.033 -15.017,3.08 -20.471,8.581c-5.454,5.501 -8.44,12.796 -8.407,20.542c0.033,7.746 3.08,15.016 8.58,20.47c5.471,5.425 12.716,8.407 20.415,8.407c0.042,0 0.085,0 0.127,0c7.746,-0.033 15.017,-3.08 20.471,-8.581c5.454,-5.501 8.44,-12.796 8.407,-20.542c-0.033,-7.746 -3.08,-15.016 -8.58,-20.47zM32.114,59c-1.3,0.004 -2.585,-0.086 -3.851,-0.261v-20.113h-6.186v-6.572h6.186v-4.373c0,-7.24 3.527,-10.418 9.544,-10.418c2.882,0 4.405,0.214 5.127,0.311v5.736h-4.104c-2.554,0 -3.446,2.422 -3.446,5.152v3.592h7.486l-1.016,6.572h-6.47v20.157c-1.077,0.134 -2.167,0.212 -3.27,0.217zM51.173,51.011c-3.817,3.85 -8.59,6.408 -13.789,7.454v-17.839h4.47c0.987,0 1.826,-0.719 1.977,-1.694l1,-6.468c0.028,-0.132 0.042,-0.269 0.042,-0.409c0,-1.105 -0.893,-2 -1.997,-2h-0.005h-5.486v-1.592c0,-1.177 0.188,-3.152 1.446,-3.152h4.104c1.105,0 2,-0.895 2,-2v-5.736c0,-1.001 -0.74,-1.848 -1.733,-1.982c-0.82,-0.111 -2.435,-0.329 -5.394,-0.329c-7.444,0 -11.544,4.41 -11.544,12.418v2.373h-4.186c-1.105,0 -2,0.895 -2,2v6.572c0,1.105 0.895,2 2,2h4.186v17.756c-4.982,-1.074 -9.568,-3.534 -13.274,-7.209c-5.123,-5.079 -7.96,-11.848 -7.99,-19.06c-0.03,-7.212 2.749,-14.004 7.827,-19.125c5.078,-5.121 11.847,-7.958 19.059,-7.989c0.04,0 0.079,0 0.119,0c7.167,0 13.913,2.777 19.006,7.827c5.122,5.078 7.959,11.847 7.989,19.059c0.03,7.212 -2.749,14.004 -7.827,19.125zM52.834,43.914c-0.001,0.001 -0.002,0.003 -0.002,0.003c-0.276,0.477 -0.884,0.642 -1.363,0.368l-1.736,-0.992c-0.479,-0.274 -0.646,-0.885 -0.372,-1.364c0.001,-0.002 0.002,-0.003 0.003,-0.004c0.276,-0.477 0.884,-0.642 1.363,-0.368l1.736,0.992c0.479,0.275 0.646,0.885 0.371,1.365zM55.059,38.478c-0.023,0.088 -0.057,0.17 -0.101,0.247c-0.22,0.381 -0.674,0.584 -1.12,0.466l-1.934,-0.51c-0.535,-0.14 -0.852,-0.687 -0.712,-1.222c0.142,-0.53 0.687,-0.853 1.222,-0.712l1.933,0.509c0.534,0.14 0.852,0.687 0.712,1.222zM44.994,50.817c0.187,0.32 0.174,0.704 0.001,1.004c-0.084,0.146 -0.207,0.272 -0.362,0.363c-0.478,0.277 -1.09,0.116 -1.368,-0.36l-1.007,-1.728c-0.278,-0.477 -0.117,-1.089 0.36,-1.367c0.477,-0.279 1.09,-0.118 1.369,0.361zM55.803,32.652c0,0.184 -0.048,0.356 -0.134,0.504c-0.172,0.298 -0.493,0.498 -0.863,0.5l-2,0.008c-0.552,0.002 -1.002,-0.443 -1.004,-0.995c-0.003,-0.555 0.442,-1.002 0.996,-1.005l2.001,-0.007c0.553,-0.002 1.002,0.443 1.004,0.995zM49.272,47.176c0.33,0.327 0.384,0.827 0.163,1.21c-0.043,0.074 -0.096,0.142 -0.157,0.205c-0.389,0.392 -1.022,0.395 -1.414,0.005l-1.42,-1.409c-0.393,-0.39 -0.387,-1.028 -0.005,-1.414c0.389,-0.392 1.022,-0.394 1.414,-0.005zM27.16,9.613c0.091,0.38 -0.049,0.764 -0.33,1c-0.115,0.097 -0.252,0.169 -0.408,0.206c-0.744,0.179 -1.482,0.4 -2.196,0.658c-0.521,0.187 -1.094,-0.082 -1.28,-0.601c-0.188,-0.52 0.083,-1.093 0.601,-1.28c0.784,-0.282 1.593,-0.525 2.406,-0.72c0.538,-0.13 1.078,0.2 1.207,0.737zM20.82,11.895c0.286,0.472 0.14,1.079 -0.338,1.374c-4.092,2.481 -7.242,6.31 -8.868,10.784c-0.062,0.171 -0.165,0.314 -0.295,0.423c-0.265,0.223 -0.638,0.303 -0.984,0.176c-0.52,-0.188 -0.787,-0.762 -0.599,-1.282c1.78,-4.901 5.227,-9.096 9.71,-11.813c0.473,-0.285 1.089,-0.134 1.374,0.338z"></path></g></g></svg>