<svg xmlns="http://www.w3.org/2000/svg" xmlns:xlink="http://www.w3.org/1999/xlink" viewBox="0,0,256,256" width="30px" height="30px"><g fill="#ededed" fill-rule="nonzero" stroke="none" stroke-width="1" stroke-linecap="butt" stroke-linejoin="miter" stroke-miterlimit="10" stroke-dasharray="" stroke-dashoffset="0" font-family="none" font-weight="none" font-size="none" text-anchor="none" style="mix-blend-mode: normal"><g transform="scale(4,4)"><path d="M31,2c-15.98828,0 -29,13.01172 -29,29c0,12.64844 8.14453,23.42578 19.45703,27.37891c0.16016,0.11328 0.35156,0.18359 0.55469,0.1875c2.82813,0.92578 5.85156,1.43359 8.98828,1.43359c15.98828,0 29,-13.01172 29,-29c0,-15.98828 -13.01172,-29 -29,-29zM31,4c14.88672,0 27,12.11328 27,27c0,11.66016 -7.42969,21.61328 -17.80078,25.38672c-0.10937,-0.32422 -0.19922,-0.80469 -0.19922,-1.13281v-5.25391c0,-2.09375 -1.02344,-4.375 -2.03125,-5.90625c5.55078,-0.9375 11.89453,-3.81641 11.89453,-14.5625c0,-2.94531 -0.92187,-5.54297 -2.73828,-7.73047c0.39844,-1.3125 0.89063,-4.08203 -0.48437,-7.55859c-0.10937,-0.27734 -0.33984,-0.49219 -0.625,-0.58594c-0.28125,-0.08594 -2.84766,-0.75391 -8.17578,2.74219c-2.16797,-0.55859 -4.46094,-0.84766 -6.83984,-0.85547c-2.36719,0.00781 -4.66406,0.29688 -6.82422,0.85547c-5.32812,-3.5 -7.90234,-2.83203 -8.17969,-2.74219c-0.28516,0.09375 -0.51562,0.30859 -0.625,0.58594c-1.37891,3.48047 -0.88672,6.24609 -0.48047,7.55859c-1.82422,2.1875 -2.74609,4.78516 -2.74609,7.73047c0,10.64844 6.23047,13.58203 11.73438,14.55859c-0.69141,0.875 -1.41797,2.00781 -1.73828,3.16016c-1.42187,0.39453 -4.33594,0.40625 -6.29297,-2.94531c-0.07031,-0.12891 -1.78125,-3.16797 -5.15625,-3.40234c-0.53516,0.00391 -1.89453,0.08984 -2.22266,1.12891c-0.36328,1.15234 0.91016,2.02734 1.45703,2.39844c0.03516,0.02344 0.08984,0.05469 0.125,0.07422c0.0625,0.03125 1.51953,0.79688 2.60547,3.53125c0.22656,0.71484 2.21484,6.10156 9.35156,5.15234c0.00391,0.78906 0,1.1875 -0.00781,1.50391v0.55859c0,0.32422 -0.09766,0.8125 -0.20703,1.12891c-10.37109,-3.77344 -17.79297,-13.72656 -17.79297,-25.37891c0,-14.88672 12.11328,-27 27,-27zM30.75781,7.00391c-3.89844,0.04297 -7.75391,1.07031 -11.14844,3.01172c-0.48047,0.26953 -0.64844,0.88281 -0.375,1.35938c0.18359,0.32422 0.51953,0.50781 0.87109,0.50781c0.16797,0 0.33594,-0.04297 0.49219,-0.13281c4.13672,-2.35937 9.01953,-3.24219 13.74219,-2.48437c0.54297,0.08984 1.05469,-0.28125 1.14453,-0.82812c0.08594,-0.54687 -0.28516,-1.05859 -0.82812,-1.14844c-1.29297,-0.20703 -2.59766,-0.30078 -3.89844,-0.28516zM38.65625,8.38672c-0.38672,0.01563 -0.75,0.26172 -0.89062,0.64844c-0.19531,0.51953 0.06641,1.09375 0.58594,1.28906c0.71094,0.26563 1.41406,0.57031 2.10156,0.91406c0.14453,0.07422 0.29688,0.10938 0.44922,0.10938c0.36328,0 0.71484,-0.19922 0.89453,-0.55078c0.24609,-0.48828 0.04688,-1.09375 -0.44531,-1.34375c-0.74609,-0.375 -1.52344,-0.71484 -2.30078,-1.00391c-0.12891,-0.04687 -0.26172,-0.06641 -0.39453,-0.0625zM44.98438,15.54688c1.07422,3.16016 0.33984,5.44922 0.07422,6.09766c-0.14453,0.35938 -0.07031,0.76953 0.19141,1.05469c1.73047,1.89453 2.60938,4.19141 2.60938,6.83203c0,10.13672 -6.00781,12.17188 -11.89062,12.82422c-0.39453,0.04297 -0.72656,0.31641 -0.84375,0.69531c-0.12109,0.37891 0,0.79297 0.30078,1.05469c0.78906,0.67578 2.57422,3.60938 2.57422,5.89453v5.25391c0,0.01953 0.00391,0.89063 0.28906,1.73828c-2.32031,0.65234 -4.76172,1.00781 -7.28906,1.00781c-2.53125,0 -4.97656,-0.35937 -7.30078,-1.01172c0.28906,-0.85156 0.29688,-1.72266 0.29688,-1.73828l0.00391,-0.53516c0.00391,-0.45312 0.01172,-1.06641 0,-2.71875c-0.00391,-0.30469 -0.14062,-0.58594 -0.375,-0.77734c-0.23437,-0.1875 -0.54297,-0.25781 -0.83984,-0.19531c-6.71484,1.46484 -8.16797,-3.38281 -8.22266,-3.58594c-0.01172,-0.03516 -0.02344,-0.06641 -0.03516,-0.10156c-0.96094,-2.4375 -2.22656,-3.67969 -2.98047,-4.24219c1.62891,0.57422 2.53906,2.16406 2.5625,2.19922c2.64453,4.52734 7.01172,4.64453 9.29688,3.62109c0.31641,-0.14062 0.53516,-0.43359 0.58203,-0.77344c0.20313,-1.42969 1.77344,-3.32031 2.56641,-4.01562c0.29688,-0.26172 0.41406,-0.67578 0.29297,-1.05078c-0.11719,-0.37891 -0.44531,-0.65234 -0.83594,-0.69531c-5.86719,-0.66797 -11.86719,-2.71875 -11.86719,-12.84766c0,-2.63672 0.87891,-4.9375 2.61719,-6.83203c0.26172,-0.28516 0.33594,-0.69531 0.1875,-1.05469c-0.26562,-0.64844 -1.00391,-2.92969 0.06641,-6.09375c0.85156,0.02734 2.92578,0.39063 6.41797,2.76172c0.24219,0.16406 0.55078,0.21484 0.83203,0.13672c2.08984,-0.58203 4.42188,-0.89453 6.73438,-0.90625c2.32031,0.01172 4.65234,0.32422 6.74609,0.90625c0.28125,0.07813 0.58594,0.02734 0.82813,-0.13672c3.51172,-2.38281 5.58594,-2.73828 6.41016,-2.76562zM21.375,34.39453c-0.39062,-0.04687 -0.78516,0.13281 -0.98828,0.49219l-1,1.73047c-0.27734,0.48047 -0.11328,1.08984 0.36328,1.36719c0.15625,0.08984 0.32813,0.13281 0.5,0.13281c0.34375,0 0.67969,-0.17969 0.86328,-0.5l1,-1.73047c0.27734,-0.47656 0.11719,-1.08984 -0.36328,-1.36719c-0.12109,-0.06641 -0.24609,-0.10937 -0.375,-0.125zM40.625,34.39453c-0.12891,0.01563 -0.25781,0.05859 -0.375,0.125c-0.48047,0.27734 -0.64062,0.89063 -0.36328,1.37109l1,1.73047c0.18359,0.32031 0.51953,0.5 0.86328,0.5c0.17188,0 0.34375,-0.04687 0.5,-0.13672c0.48047,-0.27734 0.64063,-0.88672 0.36328,-1.36328l-1,-1.73047c-0.20703,-0.35937 -0.60156,-0.54297 -0.98828,-0.49609zM36.1875,36.34375c-0.12891,-0.01953 -0.26562,-0.01172 -0.40234,0.02734c-0.53125,0.14063 -0.84766,0.6875 -0.70703,1.22266l0.51953,1.93359c0.12109,0.44531 0.52344,0.73828 0.96484,0.73828c0.08984,0 0.17578,-0.01172 0.26172,-0.03125c0.53125,-0.14453 0.85156,-0.69141 0.70703,-1.22656l-0.51562,-1.92969c-0.10937,-0.40234 -0.44531,-0.67969 -0.82812,-0.73437zM25.81641,36.34375c-0.38672,0.05469 -0.72266,0.33203 -0.83203,0.73438l-0.51562,1.93359c-0.14453,0.53125 0.17578,1.07813 0.70703,1.22266c0.08594,0.02344 0.17188,0.03125 0.26172,0.03125c0.4375,0 0.84375,-0.29297 0.96484,-0.73828l0.51953,-1.93359c0.14063,-0.53125 -0.17578,-1.08203 -0.70703,-1.22266c-0.13672,-0.03906 -0.26953,-0.04297 -0.39844,-0.02734zM31,37c-0.55469,0 -1,0.44531 -1,1v2c0,0.55469 0.44531,1 1,1c0.55469,0 1,-0.44531 1,-1v-2c0,-0.55469 -0.44531,-1 -1,-1z"></path></g></g></svg>