<svg xmlns="http://www.w3.org/2000/svg" xmlns:xlink="http://www.w3.org/1999/xlink" viewBox="0,0,256,256" width="30px" height="30px"><g fill="#ededed" fill-rule="nonzero" stroke="none" stroke-width="1" stroke-linecap="butt" stroke-linejoin="miter" stroke-miterlimit="10" stroke-dasharray="" stroke-dashoffset="0" font-family="none" font-weight="none" font-size="none" text-anchor="none" style="mix-blend-mode: normal"><g transform="scale(4,4)"><path d="M13,6c-3.85937,0 -7,3.14063 -7,7v38c0,3.85938 3.14063,7 7,7h38c3.85938,0 7,-3.14062 7,-7v-38c0,-3.85937 -3.14062,-7 -7,-7zM13,8h38c2.75781,0 5,2.24219 5,5v38c0,2.75781 -2.24219,5 -5,5h-38c-2.75781,0 -5,-2.24219 -5,-5v-38c0,-2.75781 2.24219,-5 5,-5zM12,12c-0.55469,0 -1,0.44922 -1,1v2c0,0.55078 0.44531,1 1,1c0.55469,0 1,-0.44922 1,-1v-2c0,-0.55078 -0.44531,-1 -1,-1zM17,12c-0.55469,0 -1,0.44922 -1,1v2c0,0.55078 0.44531,1 1,1c0.55469,0 1,-0.44922 1,-1v-2c0,-0.55078 -0.44531,-1 -1,-1zM22,12c-0.55469,0 -1,0.44922 -1,1v2c0,0.55078 0.44531,1 1,1c0.55469,0 1,-0.44922 1,-1v-2c0,-0.55078 -0.44531,-1 -1,-1zM27,12c-0.55469,0 -1,0.44922 -1,1v2c0,0.55078 0.44531,1 1,1c0.55469,0 1,-0.44922 1,-1v-2c0,-0.55078 -0.44531,-1 -1,-1zM32,12c-0.55469,0 -1,0.44922 -1,1v2c0,0.55078 0.44531,1 1,1c0.55469,0 1,-0.44922 1,-1v-2c0,-0.55078 -0.44531,-1 -1,-1zM37,12c-0.55469,0 -1,0.44922 -1,1v2c0,0.55078 0.44531,1 1,1c0.55469,0 1,-0.44922 1,-1v-2c0,-0.55078 -0.44531,-1 -1,-1zM42,12c-0.55469,0 -1,0.44922 -1,1v2c0,0.55078 0.44531,1 1,1c0.55469,0 1,-0.44922 1,-1v-2c0,-0.55078 -0.44531,-1 -1,-1zM47,12c-0.55469,0 -1,0.44922 -1,1v2c0,0.55078 0.44531,1 1,1c0.55469,0 1,-0.44922 1,-1v-2c0,-0.55078 -0.44531,-1 -1,-1zM52,12c-0.55469,0 -1,0.44922 -1,1v2c0,0.55078 0.44531,1 1,1c0.55469,0 1,-0.44922 1,-1v-2c0,-0.55078 -0.44531,-1 -1,-1zM19.5,18c-2.48047,0 -4.5,2.01953 -4.5,4.5c0,2.48047 2.01953,4.5 4.5,4.5c2.48047,0 4.5,-2.01953 4.5,-4.5c0,-2.48047 -2.01953,-4.5 -4.5,-4.5zM19.5,19.67188c1.55859,0 2.82813,1.26953 2.82813,2.82813c0,1.55859 -1.26953,2.82813 -2.82812,2.82813c-1.55859,0 -2.82812,-1.26953 -2.82812,-2.82812c0,-1.55859 1.26953,-2.82812 2.82813,-2.82812zM39.875,27.4375c-2.31641,0 -4.14844,0.81641 -5.44141,1.875v-0.33984c0,-0.55078 -0.44531,-1 -1,-1h-6.43359c-0.55078,0 -1,0.44922 -1,1v22.02734c0,0.55078 0.44922,1 1,1h6.70313c0.55469,0 1,-0.44922 1,-1v-11.11328c0,-3.3125 0.82031,-4.54297 3.02734,-4.54297c2.125,0 2.48438,1.45703 2.48438,4.72266v10.93359c0,0.55078 0.44531,1 1,1h6.70703c0.55469,0 1,-0.44922 1,-1v-12.27734c0.00391,-5.57812 -1.07031,-11.28516 -9.04687,-11.28516zM16,28c-0.55469,0 -1,0.44922 -1,1v22c0,0.55078 0.44531,1 1,1h7c0.55469,0 1,-0.44922 1,-1v-22c0,-0.55078 -0.44531,-1 -1,-1zM39.875,29.4375c5.87109,0 7.05078,3.55078 7.05078,9.28516v11.27734h-4.71094v-9.9375c0,-2.34766 0,-6.72266 -4.48437,-6.72266c-5.02734,0 -5.02734,4.92578 -5.02734,6.54688v10.11328h-4.70312v-20.02734h4.4375v1.95313c0,0.55078 0.53516,1 1.08984,1c0.37109,0 0.71094,-0.20703 0.88281,-0.53516c0.71875,-1.36328 2.58203,-2.95312 5.46484,-2.95312zM17,30h5v20h-5z"></path></g></g></svg>